HIERARCHY
ROOT Hips
{
    OFFSET 0.000000 0.000000 0.000000
    CHANNELS 6 Xposition Yposition Zposition Zrotation Xrotation Yrotation
    JOINT Spine
    {
        OFFSET -0.000000 8.167557 -0.000000
        CHANNELS 3 Zrotation Xrotation Yrotation
        JOINT Spine1
        {
            OFFSET 0.000002 23.859484 0.000002
            CHANNELS 3 Zrotation Xrotation Yrotation
            JOINT Neck
            {
                OFFSET -0.000002 27.221680 -0.000002
                CHANNELS 3 Zrotation Xrotation Yrotation
                JOINT Head
                {
                    OFFSET -0.000003 16.922937 2.035163
                    CHANNELS 3 Zrotation Xrotation Yrotation
                    End Site
                    {
                        OFFSET 0.000000 20.351660 0.000000
                    }
                }
            }
            JOINT LeftShoulder
            {
                OFFSET 4.036565 20.304848 -0.371913
                CHANNELS 3 Zrotation Xrotation Yrotation
                JOINT LeftArm
                {
                    OFFSET 12.502549 -0.000003 -0.000003
                    CHANNELS 3 Zrotation Xrotation Yrotation
                    JOINT LeftForeArm
                    {
                        OFFSET 31.806915 0.000006 -0.000012
                        CHANNELS 3 Zrotation Xrotation Yrotation
                        JOINT LeftHand
                        {
                            OFFSET 24.843237 0.000002 -0.000007
                            CHANNELS 3 Zrotation Xrotation Yrotation
                            JOINT LeftHandThumb1
                            {
                                OFFSET 2.126757 -2.416760 3.383455
                                CHANNELS 3 Zrotation Xrotation Yrotation
                                JOINT LeftHandThumb2
                                {
                                    OFFSET 3.212136 -0.000009 -0.000006
                                    CHANNELS 3 Zrotation Xrotation Yrotation
                                    JOINT LeftHandThumb3
                                    {
                                        OFFSET 2.745440 -0.000006 -0.000002
                                        CHANNELS 3 Zrotation Xrotation Yrotation
                                        End Site
                                        {
                                            OFFSET 2.793713 0.000000 0.000000
                                        }
                                    }
                                }
                            }
                            JOINT LeftHandIndex1
                            {
                                OFFSET 8.700332 -0.000004 3.383463
                                CHANNELS 3 Zrotation Xrotation Yrotation
                                JOINT LeftHandIndex2
                                {
                                    OFFSET 4.833524 0.000001 -0.000002
                                    CHANNELS 3 Zrotation Xrotation Yrotation
                                    JOINT LeftHandIndex3
                                    {
                                        OFFSET 2.416761 0.000001 -0.000002
                                        CHANNELS 3 Zrotation Xrotation Yrotation
                                        End Site
                                        {
                                            OFFSET 2.459254 0.000000 0.000000
                                        }
                                    }
                                }
                            }
                            JOINT LeftHandMiddle1
                            {
                                OFFSET 8.700328 -0.000007 1.121376
                                CHANNELS 3 Zrotation Xrotation Yrotation
                                JOINT LeftHandMiddle2
                                {
                                    OFFSET 5.316872 -0.000003 -0.000004
                                    CHANNELS 3 Zrotation Xrotation Yrotation
                                    JOINT LeftHandMiddle3
                                    {
                                        OFFSET 2.900109 -0.000003 -0.000003
                                        CHANNELS 3 Zrotation Xrotation Yrotation
                                        End Site
                                        {
                                            OFFSET 2.951103 0.000000 0.000000
                                        }
                                    }
                                }
                            }
                            JOINT LeftHandRing1
                            {
                                OFFSET 8.216985 -0.000001 -1.121383
                                CHANNELS 3 Zrotation Xrotation Yrotation
                                JOINT LeftHandRing2
                                {
                                    OFFSET 4.833525 0.000001 -0.000003
                                    CHANNELS 3 Zrotation Xrotation Yrotation
                                    JOINT LeftHandRing3
                                    {
                                        OFFSET 2.416762 0.000002 -0.000002
                                        CHANNELS 3 Zrotation Xrotation Yrotation
                                        End Site
                                        {
                                            OFFSET 2.459254 0.000000 0.000000
                                        }
                                    }
                                }
                            }
                            JOINT LeftHandPinky1
                            {
                                OFFSET 7.733633 0.000000 -3.383469
                                CHANNELS 3 Zrotation Xrotation Yrotation
                                JOINT LeftHandPinky2
                                {
                                    OFFSET 3.866806 -0.000004 0.000003
                                    CHANNELS 3 Zrotation Xrotation Yrotation
                                    JOINT LeftHandPinky3
                                    {
                                        OFFSET 1.933414 0.000006 0.000000
                                        CHANNELS 3 Zrotation Xrotation Yrotation
                                        End Site
                                        {
                                            OFFSET 1.967405 0.000000 0.000000
                                        }
                                    }
                                }
                            }
                        }
                    }
                }
            }
            JOINT RightShoulder
            {
                OFFSET -4.036565 20.304853 -0.371906
                CHANNELS 3 Zrotation Xrotation Yrotation
                JOINT RightArm
                {
                    OFFSET -12.502551 -0.000001 0.000004
                    CHANNELS 3 Zrotation Xrotation Yrotation
                    JOINT RightForeArm
                    {
                        OFFSET -31.806915 0.000000 0.000012
                        CHANNELS 3 Zrotation Xrotation Yrotation
                        JOINT RightHand
                        {
                            OFFSET -24.843229 0.000004 0.000006
                            CHANNELS 3 Zrotation Xrotation Yrotation
                            JOINT RightHandThumb1
                            {
                                OFFSET -2.126750 -2.416763 3.383456
                                CHANNELS 3 Zrotation Xrotation Yrotation
                                JOINT RightHandThumb2
                                {
                                    OFFSET -3.212134 0.000001 -0.000003
                                    CHANNELS 3 Zrotation Xrotation Yrotation
                                    JOINT RightHandThumb3
                                    {
                                        OFFSET -2.745439 0.000001 0.000004
                                        CHANNELS 3 Zrotation Xrotation Yrotation
                                        End Site
                                        {
                                            OFFSET -2.793713 0.000000 0.000000
                                        }
                                    }
                                }
                            }
                            JOINT RightHandIndex1
                            {
                                OFFSET -8.700332 -0.000004 3.383471
                                CHANNELS 3 Zrotation Xrotation Yrotation
                                JOINT RightHandIndex2
                                {
                                    OFFSET -4.833519 -0.000003 0.000009
                                    CHANNELS 3 Zrotation Xrotation Yrotation
                                    JOINT RightHandIndex3
                                    {
                                        OFFSET -2.416762 0.000000 -0.000007
                                        CHANNELS 3 Zrotation Xrotation Yrotation
                                        End Site
                                        {
                                            OFFSET -2.459254 0.000000 0.000000
                                        }
                                    }
                                }
                            }
                            JOINT RightHandMiddle1
                            {
                                OFFSET -8.700335 -0.000001 1.121369
                                CHANNELS 3 Zrotation Xrotation Yrotation
                                JOINT RightHandMiddle2
                                {
                                    OFFSET -5.316872 0.000003 -0.000011
                                    CHANNELS 3 Zrotation Xrotation Yrotation
                                    JOINT RightHandMiddle3
                                    {
                                        OFFSET -2.900113 0.000002 -0.000003
                                        CHANNELS 3 Zrotation Xrotation Yrotation
                                        End Site
                                        {
                                            OFFSET -2.951103 0.000000 0.000000
                                        }
                                    }
                                }
                            }
                            JOINT RightHandRing1
                            {
                                OFFSET -8.216978 0.000003 -1.121373
                                CHANNELS 3 Zrotation Xrotation Yrotation
                                JOINT RightHandRing2
                                {
                                    OFFSET -4.833519 -0.000005 0.000008
                                    CHANNELS 3 Zrotation Xrotation Yrotation
                                    JOINT RightHandRing3
                                    {
                                        OFFSET -2.416759 0.000000 -0.000008
                                        CHANNELS 3 Zrotation Xrotation Yrotation
                                        End Site
                                        {
                                            OFFSET -2.459254 0.000000 0.000000
                                        }
                                    }
                                }
                            }
                            JOINT RightHandPinky1
                            {
                                OFFSET -7.733627 -0.000002 -3.383456
                                CHANNELS 3 Zrotation Xrotation Yrotation
                                JOINT RightHandPinky2
                                {
                                    OFFSET -3.866812 0.000002 0.000004
                                    CHANNELS 3 Zrotation Xrotation Yrotation
                                    JOINT RightHandPinky3
                                    {
                                        OFFSET -1.933411 0.000002 -0.000010
                                        CHANNELS 3 Zrotation Xrotation Yrotation
                                        End Site
                                        {
                                            OFFSET -1.967405 0.000000 0.000000
                                        }
                                    }
                                }
                            }
                        }
                    }
                }
            }
        }
    }
    JOINT LeftUpLeg
    {
        OFFSET 10.175833 -0.000000 0.000007
        CHANNELS 3 Zrotation Xrotation Yrotation
        JOINT LeftLeg
        {
            OFFSET 0.000006 -42.882954 0.000007
            CHANNELS 3 Zrotation Xrotation Yrotation
            JOINT LeftFoot
            {
                OFFSET 0.000004 -39.006771 0.000007
                CHANNELS 3 Zrotation Xrotation Yrotation
                JOINT LeftToeBase
                {
                    OFFSET -0.000001 -6.614287 15.263733
                    CHANNELS 3 Zrotation Xrotation Yrotation
                    End Site
                    {
                        OFFSET 0.000000 0.000000 4.070332
                    }
                }
            }
        }
    }
    JOINT RightUpLeg
    {
        OFFSET -10.175833 0.000000 -0.000007
        CHANNELS 3 Zrotation Xrotation Yrotation
        JOINT RightLeg
        {
            OFFSET 0.000001 -42.882950 0.000001
            CHANNELS 3 Zrotation Xrotation Yrotation
            JOINT RightFoot
            {
                OFFSET -0.000005 -39.006771 -0.000006
                CHANNELS 3 Zrotation Xrotation Yrotation
                JOINT RightToeBase
                {
                    OFFSET -0.000005 -6.614288 15.263737
                    CHANNELS 3 Zrotation Xrotation Yrotation
                    End Site
                    {
                        OFFSET 0.000000 0.000000 4.070332
                    }
                }
            }
        }
    }
}
MOTION
Frames:    4
Frame Time:    0.002778
-14.592207    89.429688    216.999863    8.197349    0.992199    2.692396    -0.026845    5.793560    4.811472    -0.134217    5.793541    4.822308    2.984187    -0.237672    -4.762354    2.984186    -0.237674    -4.762354    -8.532015    0.690449    -2.056973    -55.634789    22.874580    -19.529043    -11.135161    5.078808    -133.787994    16.118704    6.990082    23.219702    47.448208    38.866440    -34.355011    -35.000004    0.000001    -0.000002    -0.000000    0.000000    -0.000000    0.000003    9.999993    0.000001    -0.000000    0.000000    -0.000000    -0.000000    0.000000    -0.000000    -0.000000    0.000000    -0.000000    -0.000000    0.000000    -0.000000    -0.000000    0.000000    -0.000000    -0.000000    0.000000    -0.000000    -0.000000    0.000000    -0.000000    -0.000000    0.000000    -0.000000    0.000003    -10.000003    -0.000001    -0.000000    0.000000    -0.000000    -0.000000    0.000000    -0.000000    -5.367862    -1.215093    3.910985    30.317020    -20.892626    57.097565    -17.000280    -11.525051    64.301781    -6.711710    3.996248    -29.831221    -47.448219    38.866440    34.355026    34.999996    0.000005    0.000004    -0.000000    0.000000    -0.000000    -0.000004    9.999996    0.000011    -0.000000    0.000000    -0.000000    -0.000000    0.000000    -0.000000    -0.000000    0.000000    -0.000000    -0.000000    0.000000    -0.000000    -0.000000    0.000000    -0.000000    -0.000000    0.000000    -0.000000    -0.000000    0.000000    -0.000000    -0.000000    0.000000    -0.000000    0.000004    -10.000000    0.000005    -0.000000    0.000000    -0.000000    -0.000000    0.000000    -0.000000    13.312438    -16.865154    -4.116017    -0.000002    31.213657    -0.000000    -23.146511    -10.999038    5.300598    0.000000    -0.879579    0.000002    -13.895966    -22.429319    -12.341784    -0.000000    57.343700    0.000001    4.947101    -31.192968    -22.798498    0.000000    -1.399223    -0.000008    
-14.552495    89.374825    216.996902    8.155227    0.967325    2.721018    -0.028623    5.813144    4.795506    -0.143111    5.813125    4.807103    2.972553    -0.239938    -4.709688    2.972556    -0.239934    -4.709686    -8.537210    0.700165    -2.055774    -55.659229    22.884499    -19.488834    -11.073178    5.013439    -133.726639    16.218126    7.011099    23.143192    47.448235    38.866428    -34.355045    -34.999996    -0.000001    -0.000006    -0.000000    0.000000    -0.000000    -0.000003    10.000003    -0.000001    -0.000000    0.000000    -0.000000    -0.000000    0.000000    -0.000000    -0.000000    0.000000    -0.000000    -0.000000    0.000000    -0.000000    -0.000000    0.000000    -0.000000    -0.000000    0.000000    -0.000000    -0.000000    0.000000    -0.000000    -0.000000    0.000000    -0.000000    -0.000004    -9.999994    -0.000002    -0.000000    0.000000    -0.000000    -0.000000    0.000000    -0.000000    -5.350537    -1.192771    3.902572    30.350454    -20.774624    56.949627    -17.083693    -11.565937    64.579529    -6.642313    3.964358    -29.874632    -47.448196    38.866432    34.355019    34.999996    -0.000005    0.000011    -0.000000    0.000000    -0.000000    -0.000000    9.999996    0.000004    -0.000000    0.000000    -0.000000    -0.000000    0.000000    -0.000000    -0.000000    0.000000    -0.000000    -0.000000    0.000000    -0.000000    -0.000000    0.000000    -0.000000    -0.000000    0.000000    -0.000000    -0.000000    0.000000    -0.000000    -0.000000    0.000000    -0.000000    -0.000004    -9.999995    -0.000006    -0.000000    0.000000    -0.000000    -0.000000    0.000000    -0.000000    13.323266    -16.886641    -4.127414    -0.000004    31.347198    0.000002    -23.155489    -11.234257    5.257537    0.000000    -0.867407    0.000001    -13.907062    -22.463552    -12.374273    -0.000003    57.485275    0.000003    4.963960    -31.250185    -22.786549    -0.000000    -1.404878    -0.000003    
-14.514315    89.317612    216.994995    8.115801    0.939820    2.744940    -0.031232    5.833854    4.781509    -0.156171    5.833831    4.794209    2.963583    -0.236563    -4.656424    2.963583    -0.236564    -4.656424    -8.543017    0.702516    -2.052887    -55.682709    22.884695    -19.446102    -11.024418    4.951591    -133.657944    16.306557    7.032670    23.084131    47.448215    38.866428    -34.355045    -35.000004    0.000005    0.000001    -0.000000    0.000000    -0.000000    0.000004    10.000008    -0.000007    -0.000000    0.000000    -0.000000    -0.000000    0.000000    -0.000000    -0.000000    0.000000    -0.000000    -0.000000    0.000000    -0.000000    -0.000000    0.000000    -0.000000    -0.000000    0.000000    -0.000000    -0.000000    0.000000    -0.000000    -0.000000    0.000000    -0.000000    0.000000    -9.999994    0.000000    -0.000000    0.000000    -0.000000    -0.000000    0.000000    -0.000000    -5.331820    -1.169591    3.897388    30.372686    -20.648846    56.789688    -17.163006    -11.607110    64.849159    -6.547060    3.922762    -29.954416    -47.448208    38.866428    34.355030    35.000008    0.000001    -0.000007    -0.000000    0.000000    -0.000000    0.000003    9.999997    0.000001    -0.000000    0.000000    -0.000000    -0.000000    0.000000    -0.000000    -0.000000    0.000000    -0.000000    -0.000000    0.000000    -0.000000    -0.000000    0.000000    -0.000000    -0.000000    0.000000    -0.000000    -0.000000    0.000000    -0.000000    -0.000000    0.000000    -0.000000    0.000000    -10.000002    0.000001    -0.000000    0.000000    -0.000000    -0.000000    0.000000    -0.000000    13.333951    -16.916445    -4.153481    -0.000001    31.505173    0.000000    -23.145132    -11.468787    5.199295    0.000000    -0.863398    -0.000002    -13.922534    -22.502573    -12.409942    -0.000000    57.640869    0.000001    4.983876    -31.306398    -22.766676    -0.000001    -1.408748    0.000000    
-14.476745    89.258606    216.996384    8.073529    0.912579    2.767118    -0.034072    5.850292    4.767004    -0.170356    5.850269    4.780898    2.957508    -0.232813    -4.603683    2.957513    -0.232809    -4.603682    -8.547933    0.696372    -2.040716    -55.699745    22.855196    -19.403540    -10.940201    4.876273    -133.578491    16.319048    7.038029    23.079296    47.448238    38.866447    -34.355053    -35.000004    -0.000005    0.000010    -0.000000    0.000000    -0.000000    0.000007    9.999994    -0.000002    -0.000000    0.000000    -0.000000    -0.000000    0.000000    -0.000000    -0.000000    0.000000    -0.000000    -0.000000    0.000000    -0.000000    -0.000000    0.000000    -0.000000    -0.000000    0.000000    -0.000000    -0.000000    0.000000    -0.000000    -0.000000    0.000000    -0.000000    0.000000    -10.000008    0.000003    -0.000000    0.000000    -0.000000    -0.000000    0.000000    -0.000000    -5.296492    -1.146089    3.890460    30.402357    -20.510834    56.635838    -17.277489    -11.635038    65.104668    -6.467153    3.883063    -29.987047    -47.448204    38.866428    34.355030    35.000008    -0.000001    -0.000004    -0.000000    0.000000    -0.000000    0.000000    10.000001    -0.000001    -0.000000    0.000000    -0.000000    -0.000000    0.000000    -0.000000    -0.000000    0.000000    -0.000000    -0.000000    0.000000    -0.000000    -0.000000    0.000000    -0.000000    -0.000000    0.000000    -0.000000    -0.000000    0.000000    -0.000000    -0.000000    0.000000    -0.000000    -0.000004    -9.999990    -0.000008    -0.000000    0.000000    -0.000000    -0.000000    0.000000    -0.000000    13.346877    -16.948055    -4.163605    -0.000001    31.674269    0.000000    -23.122189    -11.715282    5.134324    -0.000000    -0.870146    -0.000001    -13.932886    -22.541466    -12.441390    -0.000002    57.798073    0.000002    5.000004    -31.365065    -22.747246    0.000000    -1.413548    -0.000007    
